<?xml version="1.0" encoding="utf-8"?>
<!-- Generator: Adobe Illustrator 20.1.0, SVG Export Plug-In . SVG Version: 6.00 Build 0)  -->
<svg version="1.1" id="Ebene_1" xmlns="http://www.w3.org/2000/svg" xmlns:xlink="http://www.w3.org/1999/xlink" x="0px" y="0px"
	 viewBox="0 0 15 15" style="enable-background:new 0 0 15 15;" xml:space="preserve">
<style type="text/css">
	.st0{fill:#FFFFFF;}
</style>
<g>
	<path class="st0" d="M7.5,0L7.5,0C3.4,0,0,3.4,0,7.5l0,0C0,11.7,3.4,15,7.5,15l0,0c4.2,0,7.5-3.3,7.5-7.5l0,0C15,3.4,11.7,0,7.5,0z
		 M11.3,10c0.4,0.3,0.4,0.9,0,1.3c-0.2,0.2-0.4,0.3-0.6,0.3s-0.5-0.1-0.6-0.3L7.5,8.8L5,11.3c-0.2,0.2-0.4,0.3-0.6,0.3
		s-0.5-0.1-0.6-0.3c-0.4-0.3-0.4-0.9,0-1.3l2.5-2.5L3.8,5c-0.3-0.3-0.3-0.9,0-1.3s0.9-0.4,1.3,0l2.5,2.5l2.5-2.5
		c0.4-0.4,0.9-0.4,1.3,0c0.4,0.4,0.4,0.9,0,1.3L8.8,7.5L11.3,10z"/>
</g>
</svg>
