<?xml version="1.0" encoding="utf-8"?>
<!-- Generator: Adobe Illustrator 20.1.0, SVG Export Plug-In . SVG Version: 6.00 Build 0)  -->
<svg version="1.1" id="Ebene_1" xmlns="http://www.w3.org/2000/svg" xmlns:xlink="http://www.w3.org/1999/xlink" x="0px" y="0px"
	 viewBox="0 0 47 47.6" style="enable-background:new 0 0 47 47.6;" xml:space="preserve">
<style type="text/css">
	.st0{fill:#592E51;}
</style>
<path class="st0" d="M46.8,2.3c0-0.1,0-0.1,0-0.2c0-0.1,0-0.1-0.1-0.2c0,0,0-0.1,0-0.1c0,0,0,0,0,0c0-0.1-0.1-0.1-0.1-0.2
	c0,0,0-0.1-0.1-0.1c0,0-0.1-0.1-0.1-0.1c0,0-0.1-0.1-0.1-0.1c0,0-0.1-0.1-0.1-0.1c0,0-0.1-0.1-0.1-0.1C46,1.1,46,1,45.9,1
	c0,0-0.1-0.1-0.1-0.1c0,0-0.1-0.1-0.2-0.1c0,0-0.1,0-0.1-0.1c0,0,0,0-0.1,0c0,0-0.1,0-0.1,0c0,0-0.1,0-0.1,0c-0.1,0-0.1,0-0.2,0
	c0,0-0.1,0-0.1,0c-0.1,0-0.1,0-0.2,0c0,0-0.1,0-0.1,0L30.2,0.7c-1.2,0-2.2,1-2.2,2.2C28,4.1,29,5,30.2,5L39.4,5L25.2,19.3
	c-0.5,0.5-0.7,1.3-0.6,2c0.1,0.4,0.3,0.8,0.6,1.1c0.4,0.4,1,0.6,1.5,0.6c0.6,0,1.1-0.2,1.5-0.6l0,0L42.5,8l0.1,9.2
	c0,1.2,1,2.2,2.2,2.2c0.6,0,1.1-0.3,1.5-0.6c0.4-0.4,0.6-0.9,0.6-1.5L46.8,2.7c0,0,0-0.1,0-0.1c0-0.1,0-0.1,0-0.2
	C46.8,2.4,46.8,2.4,46.8,2.3z"/>
<path class="st0" d="M2.9,39.7c0,2.7,2.2,4.9,4.9,4.9l26.5,0c2.7,0,4.9-2.2,4.9-4.9l0-19.4h2.9v19.5c0,4.3-3.5,7.8-7.8,7.8l-26.9,0
	c-4.1,0-7.4-3.3-7.4-7.4l0-26.8c0-4.3,3.5-7.8,7.8-7.8l19.6,0v2.9l-19.6,0C5.2,8.4,3,10.6,3,13.3L2.9,39.7z"/>
</svg>
