<?xml version="1.0" encoding="utf-8"?>
<!-- Generator: Adobe Illustrator 20.1.0, SVG Export Plug-In . SVG Version: 6.00 Build 0)  -->
<svg version="1.1" id="Ebene_1" xmlns="http://www.w3.org/2000/svg" xmlns:xlink="http://www.w3.org/1999/xlink" x="0px" y="0px"
	 viewBox="0 0 47 47" style="enable-background:new 0 0 47 47;" xml:space="preserve">
<style type="text/css">
	.st0{fill:#592E51;}
</style>
<g>
	<path class="st0" d="M23.5,0C10.6,0,0,10.6,0,23.5S10.6,47,23.5,47S47,36.4,47,23.5S36.4,0,23.5,0z M23.5,43.5c-11,0-20-9.1-20-20
		s9-20,20-20s20,9,20,20S34.5,43.5,23.5,43.5z"/>
	<path class="st0" d="M34.6,21.4l-16.1-9.1c-0.6-0.3-1.2-0.3-1.7,0c-0.5,0.3-0.8,0.9-0.8,1.5v18.3c0,0.6,0.3,1.2,0.8,1.5
		c0.3,0.1,0.6,0.3,0.9,0.3s0.6-0.1,0.8-0.3l16.1-9.1c0.6-0.3,0.9-0.9,0.9-1.5C35.5,22.4,35.2,21.8,34.6,21.4z"/>
</g>
</svg>
