<?xml version="1.0" encoding="utf-8"?>
<!-- Generator: Adobe Illustrator 20.1.0, SVG Export Plug-In . SVG Version: 6.00 Build 0)  -->
<svg version="1.1" id="Ebene_1" xmlns="http://www.w3.org/2000/svg" xmlns:xlink="http://www.w3.org/1999/xlink" x="0px" y="0px"
	 viewBox="0 0 47 47" style="enable-background:new 0 0 47 47;" xml:space="preserve">
<style type="text/css">
	.st0{fill:#592E51;}
</style>
<g>
	<path class="st0" d="M22.9,19.2c0-6.3-5.1-11.4-11.4-11.4S0.6,12.7,0.1,19c-0.8,9.6,6.5,17.6,15.3,20.2c-3-1.8-5.1-5-5.5-8.7
		c0.5,0.1,1,0.1,1.6,0.1C17.8,30.6,22.9,25.5,22.9,19.2z"/>
	<path class="st0" d="M47,19.2c0-6.3-5.1-11.4-11.4-11.4c-6.3,0-10.9,4.9-11.4,11.2c-0.8,9.6,6.5,17.6,15.3,20.2
		c-3-1.8-5.1-5-5.5-8.7c0.5,0.1,1,0.1,1.6,0.1C41.9,30.6,47,25.5,47,19.2z"/>
</g>
</svg>
