<?xml version="1.0" encoding="utf-8"?>
<!-- Generator: Adobe Illustrator 20.1.0, SVG Export Plug-In . SVG Version: 6.00 Build 0)  -->
<svg version="1.1" id="Ebene_1" xmlns="http://www.w3.org/2000/svg" xmlns:xlink="http://www.w3.org/1999/xlink" x="0px" y="0px"
	 viewBox="0 0 328.1 32" style="enable-background:new 0 0 328.1 32;" xml:space="preserve">
<style type="text/css">
	.st0{fill:#FFFFFF;}
	.st1{fill:none;}
	.st2{font-family:'OpenSans-Extrabold';}
	.st3{font-size:29px;}
	.st4{font-family:'OpenSans-Light';}
</style>
<g>
	<title>Artboard 28</title>
	<path class="st0" d="M22.4,17.7h3.2V22c0,2.7-1.9,5-4.6,5.5L1.9,30.6c-0.9,0-1.6-0.7-1.6-1.6l0,0V2.2c0-0.9,0.7-1.6,1.6-1.6
		c0,0,0,0,0,0h7.8C9.3,1.3,9.1,2.1,9.1,3v0.8H3.6v22.5l11.8-5.8c0.8-0.4,1.8-0.1,2.2,0.7c0.1,0.2,0.2,0.5,0.2,0.7
		c0.1,1.3,1.2,2.3,2.5,2.2c1.2-0.1,2.1-1,2.2-2.2L22.4,17.7L22.4,17.7z M29.4,3v9.8c0,1.3-1.1,2.4-2.4,2.4l0,0h-6.6l0,0l-3.1,3.1
		c-0.2,0.2-0.5,0.2-0.7,0c-0.1-0.1-0.1-0.2-0.1-0.3v-2.8H14c-1.3,0-2.4-1.1-2.4-2.4c0,0,0,0,0,0V3c0-1.3,1.1-2.4,2.4-2.4h13
		C28.3,0.6,29.4,1.6,29.4,3C29.4,3,29.4,3,29.4,3z M14.9,4.8c0,0.1,0.1,0.3,0.1,0.4l0.6,0.6c0.2,0.2,0.5,0.2,0.7,0c0,0,0,0,0,0
		l1.5-1.5C18,4,18,3.7,17.8,3.5c-0.1-0.1-0.2-0.1-0.3-0.1l0,0c-0.1,0-0.3,0.1-0.4,0.1L16,4.7l-0.3-0.3c-0.2-0.2-0.5-0.2-0.7,0
		C14.9,4.5,14.9,4.6,14.9,4.8z M17.9,6.8c-0.1-0.1-0.2-0.2-0.4-0.1l0,0c-0.1,0-0.3,0.1-0.4,0.1L16,7.9l-0.3-0.3
		c-0.2-0.2-0.5-0.2-0.7,0c-0.2,0.2-0.2,0.5,0,0.7L15.6,9c0.2,0.2,0.5,0.2,0.7,0c0,0,0,0,0,0l1.5-1.5C18.1,7.3,18.1,7,17.9,6.8
		L17.9,6.8z M17.9,10c-0.1-0.1-0.2-0.2-0.4-0.1l0,0c-0.1,0-0.3,0.1-0.4,0.1L16,11.1l-0.3-0.3c-0.2-0.2-0.5-0.2-0.7,0
		c-0.2,0.2-0.2,0.5,0,0.7l0.6,0.6c0.2,0.2,0.5,0.2,0.7,0c0,0,0,0,0,0l1.5-1.5C18.1,10.5,18.1,10.2,17.9,10L17.9,10z M26.1,11.1
		c0-0.3-0.2-0.5-0.5-0.5h-5.9c-0.3,0-0.5,0.2-0.5,0.5c0,0.3,0.2,0.5,0.5,0.5h5.9C25.9,11.6,26.1,11.4,26.1,11.1L26.1,11.1z
		 M26.1,7.9c0-0.3-0.2-0.5-0.5-0.5h-5.9c-0.3,0-0.5,0.2-0.5,0.5c0,0.3,0.2,0.5,0.5,0.5h5.9C25.9,8.4,26.1,8.2,26.1,7.9
		C26.1,7.9,26.1,7.9,26.1,7.9L26.1,7.9z M26.1,4.6c0-0.3-0.2-0.5-0.5-0.5h-5.9c-0.3,0-0.5,0.2-0.5,0.5c0,0.3,0.2,0.5,0.5,0.5h5.9
		C25.9,5.2,26.1,4.9,26.1,4.6C26.1,4.7,26.1,4.7,26.1,4.6L26.1,4.6z"/>
</g>
<rect x="41.3" y="4" class="st1" width="408.6" height="32"/>
<text transform="matrix(1 0 0 1 41.2688 26.04)"><tspan x="0" y="0" class="st0 st2 st3">POLIS</tspan><tspan x="85.1" y="0" class="st0 st4 st3"> BACKGROUND</tspan></text>
</svg>
